<svg width="32" height="32" viewBox="0 0 32 32" fill="none" xmlns="http://www.w3.org/2000/svg">
<rect width="32" height="32" rx="16" fill="#958FDC"/>
<path d="M24.6993 21.3358C24.7028 20.8656 26.4982 20.8857 26.486 20.4461C26.4772 20.1072 25.6821 20.1151 25.9319 19.3978C26.3001 18.3294 26.5 17.1822 26.5 15.9886C26.5 10.1957 21.7975 5.5 16 5.5C10.2008 5.5 5.50001 10.1957 5.50001 15.9886C5.49881 17.1757 5.69981 18.3543 6.09439 19.474C6.24343 19.9495 5.50176 20.1361 5.50176 20.4198C5.50176 20.8647 7.064 20.8051 7.064 21.3218C7.064 21.7737 5.52017 21.9121 5.52017 22.3674C5.52017 22.9953 8.9401 22.7764 8.98306 23.3167C9.01725 23.7344 7.8083 23.759 7.80041 24.2047C7.78902 24.9158 12.4687 24.6829 12.4687 25.1566C12.4687 25.5148 10.3402 25.3852 10.3402 25.8082C10.3402 26.2312 13.142 26.5 16.2297 26.5C19.3174 26.5 21.4486 26.1567 21.4486 25.7854C21.4486 25.415 19.4603 25.492 19.5015 25.1566C19.5734 24.5725 23.9848 24.8711 23.9848 24.196C23.9848 23.8395 22.7715 23.7563 22.8101 23.3728C22.8662 22.8298 26.5 22.9113 26.5 22.3482C26.5 21.9059 24.7002 21.7965 24.7019 21.3376L24.6993 21.3358ZM21.8852 19.9732C21.7887 20.3314 22.8951 20.3848 22.8951 20.7587C22.8951 21.2132 19.5216 21.0319 19.5549 21.6336C19.576 22.0119 21.9518 22.0758 21.9062 22.4716C21.8413 23.0444 18.2276 22.7589 18.1917 23.3071C18.1654 23.7099 19.9556 23.7231 19.9591 24.09C19.9626 24.3991 18.5529 24.5673 15.8562 24.5673C12.7817 24.5673 11.2887 24.4018 11.4579 24.0567C11.6166 23.7344 14.3378 23.794 14.3106 23.2869C14.2826 22.7808 9.47838 22.9305 9.33285 22.4392C9.21275 22.0312 10.9118 21.9471 10.9012 21.5591C10.8898 21.1642 8.72443 21.2535 8.67709 20.7754C8.64641 20.4601 9.80889 20.4811 9.75892 20.0853C9.7221 19.798 9.24168 19.8383 8.95763 19.2446C8.41007 18.0638 8.16904 16.7643 8.25676 15.4659C8.34449 14.1676 8.75816 12.9122 9.4596 11.8157C10.161 10.7191 11.1276 9.81666 12.2703 9.19161C13.4129 8.56657 14.6947 8.23906 15.9974 8.23928C17.2744 8.23897 18.5318 8.55363 19.6579 9.15533C20.784 9.75703 21.744 10.6272 22.4526 11.6885C23.1612 12.7498 23.5965 13.9694 23.7198 15.2391C23.8432 16.5088 23.6509 17.7894 23.1598 18.967C22.796 19.7919 21.9763 19.6264 21.8825 19.9741H21.8843L21.8852 19.9732Z" fill="#2B1D3C"/>
</svg>
