<svg width="32" height="32" viewBox="0 0 32 32" fill="none" xmlns="http://www.w3.org/2000/svg">
<rect width="32" height="32" rx="16" fill="white"/>
<path d="M24.5 9.5H20.25L7.5 22H16L24.5 9.5Z" fill="url(#paint0_linear_40146_7019)"/>
<path d="M26 31.5C29.0376 31.5 31.5 29.0376 31.5 26C31.5 22.9624 29.0376 20.5 26 20.5C22.9624 20.5 20.5 22.9624 20.5 26C20.5 29.0376 22.9624 31.5 26 31.5Z" fill="url(#paint1_linear_40146_7019)" stroke="white"/>
<path d="M25.7921 28.188L23.7592 25.1387C23.6484 24.9725 23.7675 24.75 23.9672 24.75H24.8711C24.952 24.75 25.0279 24.7892 25.0748 24.8551L25.7963 25.8697C25.896 26.0099 26.1042 26.0099 26.2038 25.8697L26.9253 24.8551C26.9722 24.7892 27.0482 24.75 27.1291 24.75H28.033C28.2326 24.75 28.3517 24.9725 28.241 25.1387L26.2081 28.188C26.1091 28.3364 25.891 28.3364 25.7921 28.188Z" fill="white"/>
<path fill-rule="evenodd" clip-rule="evenodd" d="M20.8781 29.1267C19.3591 29.6914 17.7156 30 16 30C8.26801 30 2 23.732 2 16C2 8.26801 8.26801 2 16 2C23.732 2 30 8.26801 30 16C30 17.7156 29.6914 19.3591 29.1267 20.8781C29.7369 21.2514 30.2752 21.7307 30.7161 22.2903C31.5425 20.3595 32 18.2332 32 16C32 7.16344 24.8366 0 16 0C7.16344 0 0 7.16344 0 16C0 24.8366 7.16344 32 16 32C18.2332 32 20.3595 31.5425 22.2903 30.7161C21.7307 30.2752 21.2514 29.7369 20.8781 29.1267Z" fill="url(#paint2_linear_40146_7019)"/>
<defs>
<linearGradient id="paint0_linear_40146_7019" x1="16" y1="9.5" x2="16" y2="22" gradientUnits="userSpaceOnUse">
<stop stop-color="#7AEDCF"/>
<stop offset="0.201333" stop-color="#68CEFA"/>
<stop offset="0.403244" stop-color="#689CF8"/>
<stop offset="0.602076" stop-color="#AC57C0"/>
<stop offset="0.801867" stop-color="#E65659"/>
<stop offset="1" stop-color="#F2C241"/>
</linearGradient>
<linearGradient id="paint1_linear_40146_7019" x1="26" y1="21" x2="26" y2="31" gradientUnits="userSpaceOnUse">
<stop stop-color="#7AEDCF"/>
<stop offset="0.201333" stop-color="#68CEFA"/>
<stop offset="0.403244" stop-color="#689CF8"/>
<stop offset="0.602076" stop-color="#AC57C0"/>
<stop offset="0.801867" stop-color="#E65659"/>
<stop offset="1" stop-color="#F2C241"/>
</linearGradient>
<linearGradient id="paint2_linear_40146_7019" x1="16.0001" y1="0" x2="16.0001" y2="32" gradientUnits="userSpaceOnUse">
<stop stop-color="#7AEDCF"/>
<stop offset="0.201333" stop-color="#68CEFA"/>
<stop offset="0.403244" stop-color="#689CF8"/>
<stop offset="0.602076" stop-color="#AC57C0"/>
<stop offset="0.801867" stop-color="#E65659"/>
<stop offset="1" stop-color="#F2C241"/>
</linearGradient>
</defs>
</svg>
