<svg width="64" height="64" viewBox="0 0 64 64" fill="none" xmlns="http://www.w3.org/2000/svg">
<g clip-path="url(#clip0_31648_11863)">
<rect width="64" height="64" rx="32" fill="white"/>
<path fill-rule="evenodd" clip-rule="evenodd" d="M31.9998 64.0001C14.3999 64.0001 0 49.6002 0 31.8404C0.159999 14.2405 14.3999 -0.159411 32.1598 0.000588141C49.7597 0.160587 63.9996 14.4005 63.9996 32.3204C63.8396 49.7602 49.5997 64.0001 31.9998 64.0001Z" fill="white"/>
<path fill-rule="evenodd" clip-rule="evenodd" d="M35.0405 28.1604L34.0805 33.2804L43.2004 34.5604L42.5604 36.9604L33.6005 35.6804C32.9605 37.7604 32.6405 40.0004 31.8405 41.9203C31.0405 44.1603 30.2405 46.4003 29.2805 48.4803C28.0005 51.2003 25.7606 53.1203 22.7206 53.6003C20.9606 53.9203 19.0406 53.7603 17.6006 52.6403C17.1206 52.3203 16.6406 51.6803 16.6406 51.2003C16.6406 50.5603 16.9606 49.7603 17.4406 49.4403C17.7606 49.2803 18.5606 49.4403 19.0406 49.6003C19.5206 50.0803 20.0006 50.7203 20.3206 51.3603C21.2806 52.6403 22.5606 52.8003 23.8406 51.8403C25.2806 50.5603 26.0806 48.8003 26.5606 47.0403C27.5206 43.2003 28.4805 39.5204 29.2805 35.6804V35.0404L20.8006 33.7604L21.1206 31.3604L29.9205 32.6404L31.0405 27.6804L21.9206 26.2405L22.2406 23.6805L31.6805 24.9605C32.0005 24.0005 32.1605 23.2005 32.4805 22.4005C33.2805 19.5205 34.0805 16.6405 36.0005 14.0805C37.9205 11.5206 40.1605 9.92057 43.5204 10.0806C44.9604 10.0806 46.4004 10.5606 47.3604 11.6806C47.5204 11.8406 47.8404 12.1606 47.8404 12.4805C47.8404 13.1205 47.8404 13.9205 47.3604 14.4005C46.7204 14.8805 45.9204 14.7205 45.2804 14.0805C44.8004 13.6005 44.4804 13.1205 44.0004 12.6405C43.0404 11.3606 41.6005 11.2006 40.4805 12.3205C39.6805 13.1205 38.8805 14.2405 38.4005 15.3605C37.2805 18.7205 36.4805 22.2405 35.3605 25.7605L44.1604 27.0404L43.5204 29.4404L35.0405 28.1604Z" fill="#0090FF"/>
</g>
<mask id="path-4-outside-1_31648_11863" maskUnits="userSpaceOnUse" x="40" y="40" width="24" height="24" fill="black">
<rect fill="white" x="40" y="40" width="24" height="24"/>
<path d="M62 52C62 57.5228 57.5228 62 52 62C46.4772 62 42 57.5228 42 52C42 46.4772 46.4772 42 52 42C57.5228 42 62 46.4772 62 52Z"/>
</mask>
<path d="M62 52C62 57.5228 57.5228 62 52 62C46.4772 62 42 57.5228 42 52C42 46.4772 46.4772 42 52 42C57.5228 42 62 46.4772 62 52Z" fill="url(#paint0_linear_31648_11863)"/>
<path d="M60 52C60 56.4183 56.4183 60 52 60V64C58.6274 64 64 58.6274 64 52H60ZM52 60C47.5817 60 44 56.4183 44 52H40C40 58.6274 45.3726 64 52 64V60ZM44 52C44 47.5817 47.5817 44 52 44V40C45.3726 40 40 45.3726 40 52H44ZM52 44C56.4183 44 60 47.5817 60 52H64C64 45.3726 58.6274 40 52 40V44Z" fill="white" mask="url(#path-4-outside-1_31648_11863)"/>
<path d="M51.5842 56.376L47.5184 50.2774C47.2969 49.9451 47.5351 49.5 47.9344 49.5H49.7422C49.904 49.5 50.0559 49.5783 50.1497 49.7102L51.5927 51.7395C51.792 52.0198 52.2083 52.0198 52.4077 51.7395L53.8507 49.7102C53.9445 49.5783 54.0963 49.5 54.2582 49.5H56.0659C56.4653 49.5 56.7035 49.9451 56.4819 50.2773L52.4162 56.376C52.2183 56.6728 51.7821 56.6728 51.5842 56.376Z" fill="white"/>
<path fill-rule="evenodd" clip-rule="evenodd" d="M41.7562 58.2534C38.7182 59.3828 35.4312 60 32 60C16.536 60 4 47.464 4 32C4 16.536 16.536 4 32 4C47.464 4 60 16.536 60 32C60 35.4312 59.3828 38.7182 58.2534 41.7562C59.4738 42.5028 60.5505 43.4614 61.4322 44.5807C63.085 40.719 64 36.4664 64 32C64 14.3269 49.6731 0 32 0C14.3269 0 0 14.3269 0 32C0 49.6731 14.3269 64 32 64C36.4664 64 40.719 63.085 44.5807 61.4322C43.4614 60.5505 42.5028 59.4738 41.7562 58.2534Z" fill="url(#paint1_linear_31648_11863)"/>
<defs>
<linearGradient id="paint0_linear_31648_11863" x1="52" y1="42" x2="52" y2="62" gradientUnits="userSpaceOnUse">
<stop stop-color="#7AEDCF"/>
<stop offset="0.201333" stop-color="#68CEFA"/>
<stop offset="0.403244" stop-color="#689CF8"/>
<stop offset="0.602076" stop-color="#AC57C0"/>
<stop offset="0.801867" stop-color="#E65659"/>
<stop offset="1" stop-color="#F2C241"/>
</linearGradient>
<linearGradient id="paint1_linear_31648_11863" x1="32.0001" y1="0" x2="32.0001" y2="64" gradientUnits="userSpaceOnUse">
<stop stop-color="#7AEDCF"/>
<stop offset="0.201333" stop-color="#68CEFA"/>
<stop offset="0.403244" stop-color="#689CF8"/>
<stop offset="0.602076" stop-color="#AC57C0"/>
<stop offset="0.801867" stop-color="#E65659"/>
<stop offset="1" stop-color="#F2C241"/>
</linearGradient>
<clipPath id="clip0_31648_11863">
<rect width="64" height="64" rx="32" fill="white"/>
</clipPath>
</defs>
</svg>
